<svg xmlns="http://www.w3.org/2000/svg" width="24" height="24" viewBox="0 0 24 24" fill="none">
  <path d="M12 2C6.48 2 2 6.48 2 12C2 17.52 6.48 22 12 22C17.52 22 22 17.52 22 12C22 6.48 17.52 2 12 2ZM12 20C7.59 20 4 16.41 4 12C4 7.59 7.59 4 12 4C16.41 4 20 7.59 20 12C20 16.41 16.41 20 12 20Z" fill="white"/>
  <path d="M13.54 8.97L13.55 8.98C14.47 10.46 14.47 12.37 13.55 13.86C13.55 13.86 13.55 13.86 13.54 13.87C12.63 15.34 11.37 15.35 10.45 13.87C9.53 12.38 9.53 10.47 10.45 8.98C11.37 7.5 12.63 7.5 13.54 8.97Z" fill="white"/>
  <path d="M18.52 11.26L18.51 11.26C18.52 10.76 18.43 10.26 18.24 9.79C18.05 9.32 17.75 8.89 17.38 8.53L15.14 10.02C14.87 10.55 14.51 11.03 14.07 11.42C14.51 11.81 14.87 12.28 15.14 12.81L17.38 14.3C17.75 13.95 18.05 13.52 18.24 13.05C18.43 12.58 18.52 12.08 18.52 11.58L18.52 11.26Z" fill="white"/>
  <path d="M5.48 11.26L5.49 11.26C5.48 10.76 5.57 10.26 5.76 9.79C5.95 9.32 6.25 8.89 6.62 8.53L8.86 10.02C9.13 10.55 9.49 11.03 9.93 11.42C9.49 11.81 9.13 12.28 8.86 12.81L6.62 14.3C6.25 13.95 5.95 13.52 5.76 13.05C5.57 12.58 5.48 12.08 5.48 11.58L5.48 11.26Z" fill="white"/>
  <path d="M12 17.5C11.5 17.5 11.01 17.42 10.54 17.24C10.07 17.06 9.64 16.79 9.28 16.44L10.88 14.08C11.23 14.06 11.58 14.1 11.91 14.19C12.24 14.28 12.54 14.42 12.82 14.6L14.42 16.96C14.06 17.31 13.63 17.59 13.16 17.77C12.69 17.95 12.19 18.03 11.69 18.03L12 17.5Z" fill="white"/>
  <path d="M12 5.33C11.5 5.33 11.01 5.41 10.54 5.59C10.07 5.77 9.64 6.05 9.28 6.39L10.88 8.75C11.23 8.77 11.58 8.73 11.91 8.64C12.24 8.55 12.54 8.41 12.82 8.23L14.42 5.87C14.06 5.52 13.63 5.24 13.16 5.06C12.69 4.88 12.19 4.8 11.69 4.8L12 5.33Z" fill="white"/>
</svg> 